<?xml version="1.0" encoding="UTF-8"?>
<svg width="141px" height="41px" viewBox="0 0 141 41" version="1.1" xmlns="http://www.w3.org/2000/svg" xmlns:xlink="http://www.w3.org/1999/xlink">
    <!-- Generator: Sketch 56.2 (81672) - https://sketch.com -->
    <title>logo</title>
    <desc>Created with Sketch.</desc>
    <g id="Assets" stroke="none" stroke-width="1" fill="none" fill-rule="evenodd">
        <g id="Artboard" transform="translate(-34.000000, -33.000000)">
            <g id="logo" transform="translate(33.000000, 33.000000)">
                <text id="DocuHub" font-family="BrandonGrotesque-Bold, Brandon Grotesque" font-size="23" font-weight="bold" fill="#F5F5F5">
                    <tspan x="52.9266633" y="28.2792339">Crypto</tspan>
                </text>
                <g id="noun_Document_863623" transform="translate(0.000000, 0.059728)" fill="#FFFFFF" fill-rule="nonzero">
                    <rect id="Rectangle" x="16.9668002" y="18.5006168" width="8.73438826" height="1.40553374"></rect>
                    <rect id="Rectangle" x="16.9668002" y="24.9761115" width="4.71857757" height="1.40553374"></rect>
                    <rect id="Rectangle" x="16.9668002" y="21.6630677" width="8.73438826" height="1.40553374"></rect>
                    <path d="M24.39605,13.4808534 C24.39605,13.8824345 24.6972358,14.1836203 25.0988169,14.1836203 L27.2573151,14.1836203 L24.39605,11.3223552 L24.39605,13.4808534 Z" id="Path"></path>
                    <path d="M21.1945565,40.2696573 C32.3147152,40.2696573 41.3293851,31.2549874 41.3293851,20.1348286 C41.3293851,9.01466984 32.3147152,0 21.1945565,0 C10.0743977,0 1.05972782,9.01466984 1.05972782,20.1348286 C1.05972782,31.2549874 10.0743977,40.2696573 21.1945565,40.2696573 Z M30.0683826,27.7369814 C30.0683826,29.1425151 28.913837,30.2970607 27.5083033,30.2970607 L15.1094877,30.2970607 C13.703954,30.2970607 12.5494084,29.1425151 12.5494084,27.7369814 L12.5494084,10.9207741 C12.5494084,9.51524034 13.703954,8.36069477 15.1094877,8.36069477 L23.7936784,8.36069477 L24.0948642,8.46109004 C24.1952594,8.51128767 24.2454571,8.5614853 24.2956547,8.61168294 L29.7671968,14.1836203 C29.8675921,14.2840155 29.9177897,14.3844108 29.9679873,14.5350037 L29.9679873,14.635399 L30.018185,14.8863871 L30.018185,27.7369814 L30.0683826,27.7369814 Z" id="Shape"></path>
                </g>
            </g>
        </g>
    </g>
</svg>